<mxfile host="app.diagrams.net" modified="2024-08-23T09:39:41.001Z" agent="Mozilla/5.0 (Windows NT 10.0; Win64; x64) AppleWebKit/537.36 (KHTML, like Gecko) Chrome/127.0.0.0 Safari/537.36" version="24.6.4" etag="IblwOvQiBhL5UH9cP8Ky" type="github">
  <diagram name="Page-1" id="Gs54I5ewCPD6iZpQG7sV">
    <mxGraphModel>
      <root>
        <mxCell id="0" />
        <mxCell id="1" parent="0" />
      </root>
    </mxGraphModel>
  </diagram>
</mxfile>
